<?xml version="1.0" standalone="no"?>
<!DOCTYPE svg PUBLIC "-//W3C//DTD SVG 20010904//EN"
 "http://www.w3.org/TR/2001/REC-SVG-20010904/DTD/svg10.dtd">
<svg version="1.0" xmlns="http://www.w3.org/2000/svg"
 width="842.000000pt" height="842.000000pt" viewBox="0 0 842.000000 842.000000"
 preserveAspectRatio="xMidYMid meet">
<metadata>
Created by potrace 1.16, written by Peter Selinger 2001-2019
</metadata>
<g transform="translate(0.000000,842.000000) scale(0.100000,-0.100000)"
fill="#000000" stroke="none">
<path d="M6128 6250 c-21 -16 -31 -18 -53 -10 -49 19 -87 11 -157 -31 -69 -42
-69 -42 -146 -36 -219 17 -554 -39 -721 -121 -56 -28 -71 -46 -52 -65 13 -13
15 -51 2 -42 -5 3 -12 1 -16 -5 -3 -5 -14 -10 -24 -10 -10 0 -30 -9 -45 -21
-20 -16 -25 -26 -20 -43 8 -27 44 -66 60 -66 7 0 16 -5 19 -11 5 -7 -4 -9 -26
-7 -32 3 -33 2 -62 -72 -71 -187 -79 -229 -86 -455 -8 -243 -7 -240 -125 -398
-88 -119 -87 -161 7 -208 83 -42 91 -63 60 -154 -16 -48 -16 -49 7 -67 12 -10
34 -21 49 -24 65 -14 68 -21 17 -35 -27 -8 -54 -22 -60 -32 -9 -16 -3 -25 42
-65 l53 -47 -7 -75 c-6 -65 -4 -81 14 -117 12 -23 36 -52 54 -65 29 -20 46
-23 155 -26 77 -2 163 2 230 12 136 20 193 20 221 0 55 -38 83 -161 86 -372 1
-97 4 -121 14 -117 8 3 151 5 318 5 l304 0 0 140 0 140 -57 2 -58 1 55 6 c47
5 55 9 58 28 3 18 -3 22 -30 26 l-33 4 33 1 c25 2 32 6 32 22 0 17 -7 20 -45
20 -39 0 -45 -3 -51 -25 -7 -27 -24 -31 -55 -14 -12 6 -18 17 -15 25 3 9 1 12
-4 9 -6 -3 -10 -2 -10 2 0 23 26 30 100 26 67 -4 80 -2 80 11 0 8 -11 16 -27
19 l-28 4 28 2 c21 1 28 5 25 18 -2 13 -17 20 -52 25 -76 11 -83 29 -8 22 35
-4 62 -3 62 2 0 5 43 8 95 6 57 -2 95 1 95 6 0 6 -57 12 -137 14 -143 3 -182
14 -197 55 -10 26 0 26 46 0 41 -23 49 -24 166 -19 89 3 125 8 129 18 2 7 12
10 20 7 10 -4 14 -2 10 4 -8 13 33 22 59 13 15 -6 16 -8 4 -12 -13 -4 -13 -5
0 -4 8 1 14 9 12 18 -2 11 5 15 25 12 15 -1 34 1 43 7 12 7 12 8 -5 7 -54 -4
-85 3 -85 17 0 12 4 13 19 5 30 -15 54 -13 47 6 -3 8 -2 12 4 9 6 -3 10 -1 10
6 0 6 -8 9 -20 6 -27 -7 -36 10 -10 18 28 9 52 -12 45 -39 -3 -12 -2 -15 1 -8
5 10 9 9 20 -5 12 -17 13 -16 14 6 0 13 -11 39 -26 58 -14 18 -20 33 -14 33
19 0 60 -32 76 -59 l15 -26 -6 30 c-9 41 -39 71 -89 89 l-41 14 38 1 c40 1 85
-17 106 -43 38 -45 41 4 5 59 l-27 40 30 -27 c16 -16 32 -28 36 -28 4 0 7 23
7 51 0 65 9 81 70 118 32 20 50 38 50 50 0 37 -53 71 -111 71 -55 0 -69 28
-69 138 0 127 3 137 48 148 47 12 58 44 15 44 -16 0 -35 -6 -42 -12 -11 -11
-13 -10 -7 0 4 7 1 15 -8 18 -13 5 -12 10 5 40 27 49 27 139 -1 154 -11 6 -20
17 -20 24 0 7 -11 23 -25 36 -14 13 -23 25 -20 28 2 3 -2 14 -10 26 -31 43
-13 121 38 168 11 10 14 19 8 22 -7 5 -7 16 0 34 6 15 12 38 14 52 34 230 32
308 -11 415 -21 54 -42 85 -90 133 -71 71 -137 105 -236 122 -46 8 -68 17 -68
26 0 7 -12 28 -27 44 -37 41 -96 50 -135 20z m-167 -160 c24 -13 49 -61 49
-94 0 -33 -44 -83 -79 -91 -63 -14 -121 35 -121 101 0 35 5 47 31 68 33 28 85
34 120 16z m565 -56 c63 -30 74 -63 74 -223 l0 -141 33 -2 32 -1 -32 -4 -33
-4 0 -86 c0 -99 -16 -141 -68 -181 -28 -21 -47 -27 -101 -29 l-66 -2 65 14
c118 27 154 74 155 200 l0 80 -135 0 -134 0 -37 -75 c-46 -92 -51 -87 -8 7 17
37 35 79 39 93 6 17 9 19 9 7 1 -16 12 -17 134 -15 l132 3 -2 137 c-2 150 -10
176 -64 204 -47 24 -94 18 -133 -17 -62 -54 -58 -160 7 -199 18 -11 27 -20 20
-20 -22 0 -72 51 -83 86 -39 117 84 221 196 168z m-1075 -399 c53 -19 105 -67
119 -110 14 -43 -3 -127 -35 -169 -14 -18 -49 -45 -77 -60 -29 -15 -45 -21
-34 -14 105 73 136 117 136 194 0 81 -74 147 -165 147 -54 0 -80 -11 -177 -73
-34 -22 -70 -40 -81 -40 -16 0 -17 -3 -7 -15 7 -8 18 -15 26 -15 7 0 15 -4 19
-10 3 -5 -7 -5 -25 1 -37 13 -80 63 -80 92 0 18 3 16 16 -10 14 -28 20 -32 43
-27 14 3 56 26 92 51 68 46 128 72 165 73 12 0 41 -7 65 -15z m174 -785 c-27
-5 -84 -9 -126 -9 -60 -1 -78 -4 -83 -17 -3 -9 -6 -60 -6 -114 l0 -99 -60 -22
c-34 -12 -68 -31 -75 -43 -25 -35 -19 -84 15 -123 26 -29 30 -41 30 -94 0 -56
-3 -64 -33 -94 -24 -24 -48 -36 -89 -44 -43 -9 -64 -20 -83 -42 -14 -17 -25
-34 -25 -38 0 -27 24 -69 48 -84 15 -9 21 -17 14 -17 -23 0 -72 57 -72 84 0
55 50 106 104 106 8 0 34 7 56 16 49 20 70 55 70 118 0 36 -6 52 -31 81 -54
61 -38 148 30 173 17 7 45 17 61 23 l30 11 0 99 c0 137 2 139 158 138 95 -1
108 -3 67 -9z m777 -259 c15 -1 15 -6 1 -58 -8 -32 -23 -65 -34 -73 -17 -14
-25 -31 -28 -63 -1 -4 -25 -23 -55 -42 -49 -31 -57 -33 -87 -23 -57 18 -63 23
-91 77 -22 41 -25 57 -18 72 6 10 15 19 21 19 5 0 23 14 39 30 16 17 36 30 43
30 8 0 20 6 27 14 16 20 76 25 182 17z m-887 -96 c50 -49 22 -145 -42 -145
-38 0 -73 42 -73 88 0 75 65 108 115 57z"/>
<path d="M5872 6060 c-46 -19 -48 -95 -3 -119 70 -38 145 40 99 102 -16 21
-65 30 -96 17z"/>
<path d="M2703 5950 c-29 -16 -82 -58 -118 -91 -54 -51 -68 -59 -80 -49 -13
11 -13 14 0 27 16 16 21 38 6 28 -18 -10 -22 34 -6 65 9 17 11 30 5 30 -5 0
-10 -4 -10 -10 0 -5 -4 -10 -10 -10 -5 0 -7 8 -3 18 3 9 -8 0 -25 -21 -33 -41
-38 -57 -47 -162 -3 -38 -11 -94 -16 -123 l-11 -53 -39 45 c-58 66 -116 90
-214 89 -149 0 -205 -58 -205 -210 0 -34 -3 -64 -7 -66 -5 -3 -6 15 -4 39 3
49 -1 53 -31 24 -12 -10 -25 -17 -29 -14 -4 2 -10 0 -13 -5 -9 -14 25 -23 40
-10 11 9 14 8 14 -5 0 -9 -11 -18 -27 -21 -16 -3 -42 -10 -59 -15 -17 -6 -44
-10 -61 -10 -56 0 -93 -19 -94 -48 -1 -17 -3 -21 -6 -9 -5 20 -19 22 -29 5 -4
-7 -3 -8 4 -4 7 4 12 2 12 -3 0 -7 -24 -11 -58 -11 -58 0 -128 -27 -145 -56
-4 -8 -15 -14 -24 -14 -9 0 -13 -6 -10 -14 3 -8 -2 -18 -11 -22 -25 -11 -112
-14 -112 -4 0 5 8 7 18 5 31 -6 44 9 33 37 -9 23 -61 67 -61 51 0 -4 -6 1 -13
12 -13 16 -15 14 -21 -23 -4 -31 -10 -40 -21 -36 -11 5 -15 -2 -15 -27 0 -48
-8 -54 -70 -54 -61 0 -133 -30 -187 -78 -37 -34 -107 -143 -98 -156 3 -5 1
-12 -4 -16 -6 -3 -9 -40 -8 -83 2 -63 8 -88 33 -142 31 -63 96 -140 118 -140
6 0 2 7 -8 15 -11 8 -16 18 -12 22 8 8 30 -23 31 -42 0 -5 11 -8 24 -7 19 3
22 0 18 -13 -4 -9 -3 -14 3 -10 6 3 10 2 10 -2 0 -5 14 -17 31 -27 18 -11 29
-14 26 -8 -8 11 18 24 28 14 6 -7 10 -8 36 -11 5 0 8 -5 4 -10 -3 -5 -1 -12 4
-15 5 -3 11 3 14 14 5 20 27 28 27 10 0 -5 -4 -10 -10 -10 -5 0 -10 -5 -10
-10 0 -6 11 -8 27 -4 43 10 49 22 19 34 -16 6 -24 15 -20 21 3 6 0 15 -7 20
-11 7 -11 9 -1 9 7 0 11 4 7 9 -3 5 3 12 13 16 14 4 18 12 14 31 -2 14 -8 21
-11 15 -4 -6 -17 -8 -29 -4 -12 3 -19 9 -16 14 3 5 9 7 13 5 4 -3 7 5 8 17 0
12 -1 16 -4 10 -8 -23 -23 -14 -23 14 0 21 3 24 12 15 9 -9 14 -7 24 6 20 25
18 48 -2 28 -26 -26 -38 -18 -13 8 13 14 24 31 24 38 0 7 13 14 29 16 18 2 26
0 22 -7 -4 -7 -1 -8 8 -5 9 3 14 10 11 14 -3 4 2 11 11 14 25 10 37 7 31 -8
-3 -7 0 -22 8 -33 11 -15 11 -25 0 -56 -7 -21 -11 -36 -8 -33 8 8 44 -14 39
-23 -3 -5 43 -7 101 -5 68 1 102 -1 92 -7 -11 -7 -10 -10 8 -15 47 -13 56
-151 12 -174 -10 -6 -19 -18 -19 -27 0 -9 -3 -14 -6 -11 -7 7 -44 -28 -44 -41
0 -20 53 -50 106 -61 44 -9 55 -16 60 -36 3 -13 11 -24 16 -24 6 0 8 -7 4 -15
-7 -20 10 -67 31 -82 14 -11 10 -13 -26 -13 -23 0 -40 -3 -38 -7 3 -5 -8 -8
-24 -9 -40 -2 -99 -50 -117 -96 -8 -21 -19 -38 -24 -38 -4 0 -8 -26 -8 -59 l0
-59 -76 -7 c-59 -5 -79 -4 -85 7 -6 10 -9 10 -9 1 0 -9 -16 -13 -47 -13 -27 0
-55 -5 -63 -10 -10 -6 1 -7 33 -4 27 3 56 2 65 -2 10 -3 38 -6 65 -5 l47 2 0
-95 c0 -79 3 -99 18 -111 69 -58 79 -71 85 -119 16 -115 93 -162 230 -140 62
11 42 24 -37 24 -121 0 -151 22 -163 120 -6 56 -39 105 -78 120 -20 7 -23 18
-29 94 -4 48 -4 91 -1 96 4 6 44 10 96 9 83 -1 90 0 108 22 10 13 34 32 52 43
l34 18 -30 -27 c-19 -18 -26 -29 -17 -32 6 -3 12 -11 12 -19 0 -8 4 -14 10
-14 5 0 12 -11 16 -24 3 -14 12 -27 20 -30 7 -3 11 -12 8 -21 -4 -10 0 -15 15
-15 12 0 21 6 21 15 0 8 13 29 28 46 33 36 76 42 118 14 19 -13 24 -24 24 -61
0 -63 -34 -98 -91 -92 l-39 4 2 -67 c2 -39 6 -62 11 -56 5 7 6 0 2 -16 -5 -26
-4 -28 17 -21 20 6 21 5 10 -8 -10 -13 -9 -17 5 -23 10 -5 23 -7 30 -6 7 1 9
-7 6 -19 -4 -13 0 -20 9 -20 8 0 23 -17 34 -37 10 -20 26 -38 34 -41 9 -2 7 2
-5 11 -11 8 -17 19 -12 23 4 4 7 2 7 -4 0 -7 7 -12 16 -12 8 0 12 5 9 10 -3 6
-1 10 4 10 7 0 12 29 13 73 0 39 3 56 5 37 15 -159 16 -164 24 -145 4 12 8
-26 8 -95 1 -63 4 -131 7 -151 6 -33 4 -37 -20 -43 -32 -8 -34 -26 -2 -26 22
0 23 -3 22 -70 0 -44 5 -75 12 -82 8 -8 48 -14 100 -17 66 -2 92 -8 111 -22
13 -11 32 -19 43 -19 12 0 16 -4 12 -12 -5 -8 0 -9 15 -5 23 6 55 -18 46 -34
-4 -5 0 -9 8 -9 8 0 21 -10 29 -21 9 -14 25 -22 48 -23 24 -1 45 -11 65 -30
17 -16 25 -26 18 -22 -6 3 -16 -1 -21 -10 -8 -14 -10 -14 -26 2 -14 14 -15 19
-4 26 9 7 7 8 -9 5 -12 -3 -27 1 -34 9 -11 14 -29 10 -29 -5 0 -13 33 -47 58
-60 12 -7 20 -16 17 -20 -2 -5 5 -11 16 -14 12 -3 18 -10 14 -16 -15 -25 10
-8 46 31 l38 42 12 -27 c6 -14 16 -24 20 -21 4 2 6 -5 4 -17 -3 -15 0 -19 11
-15 8 3 13 2 10 -3 -3 -5 3 -28 13 -52 11 -23 18 -51 15 -62 -2 -11 -1 -17 3
-14 9 10 32 -25 33 -51 0 -26 18 -60 44 -84 10 -10 14 -18 8 -18 -7 0 -12 -5
-12 -10 0 -6 8 -10 18 -8 9 2 16 -3 15 -9 -2 -7 2 -13 7 -13 6 0 10 -5 10 -11
0 -15 26 -39 42 -39 10 0 10 -2 -1 -9 -10 -7 -11 -9 -1 -13 7 -2 15 -15 17
-29 2 -13 10 -29 18 -35 8 -6 15 -18 15 -27 0 -9 9 -19 20 -22 24 -8 26 -25 3
-25 -15 0 -15 -1 -1 -12 8 -7 22 -28 29 -45 8 -18 17 -33 20 -33 4 0 7 -12 7
-26 0 -59 25 -62 550 -63 l412 -1 0 44 c0 212 -136 480 -325 639 -63 53 -219
174 -285 220 -14 9 -43 30 -64 45 -65 45 -89 60 -131 83 -22 12 -44 28 -48 35
-4 8 -14 14 -21 14 -7 0 -21 9 -31 20 -10 11 -23 20 -28 20 -21 0 -117 93
-162 155 -60 85 -102 175 -120 261 -34 159 -5 410 55 483 31 36 73 40 226 20
196 -26 335 -25 390 2 40 19 103 96 68 82 -10 -4 -12 0 -7 13 4 12 3 15 -5 10
-7 -4 -15 0 -19 11 -4 9 -18 28 -32 41 -14 13 -26 29 -27 37 -1 8 -9 22 -18
31 -9 8 -13 20 -10 26 4 7 2 8 -4 4 -7 -4 -12 -1 -12 9 0 9 -5 13 -11 9 -7 -4
-10 -1 -7 7 3 8 -6 22 -19 32 -13 10 -21 23 -18 27 3 5 -3 18 -14 29 -10 10
-22 33 -26 50 -4 19 -11 28 -17 25 -7 -4 -8 -2 -4 5 7 10 -36 98 -54 111 -4 3
-17 24 -29 48 -12 23 -26 42 -31 42 -5 0 -6 8 -3 17 5 12 2 15 -10 10 -11 -4
-14 -2 -11 7 3 8 -4 21 -16 29 -13 9 -23 29 -26 52 -2 21 -11 46 -18 57 -8 11
-12 27 -9 34 11 30 -6 12 -33 -33 -20 -34 -28 -65 -32 -114 -4 -64 -2 -72 38
-153 37 -75 42 -90 32 -111 -6 -14 -17 -25 -24 -25 -9 0 -9 3 0 12 18 18 15
49 -8 83 -78 115 -86 204 -28 325 20 41 39 84 42 96 8 25 -14 47 -41 42 -12
-2 -18 3 -16 16 0 10 -10 38 -23 62 -14 24 -21 44 -17 44 10 1 -37 40 -47 40
-4 0 -22 -23 -40 -50 -19 -29 -50 -61 -75 -75 -77 -46 -178 -43 -221 7 -17 19
-16 19 14 -2 71 -52 195 -19 257 68 27 40 30 51 29 120 0 99 -9 152 -29 191
-21 42 -141 168 -174 184 -20 10 -25 19 -23 40 3 30 -23 65 -54 69 -10 2 -21
8 -23 13 -12 26 -26 33 -40 21 -30 -23 49 82 83 112 41 36 183 133 192 131 3
0 9 2 12 6 4 4 2 6 -3 5 -24 -5 -43 1 -49 15 -4 13 -2 14 14 5 14 -7 20 -7 20
0 0 5 -4 10 -9 10 -5 0 -15 2 -23 5 -7 3 -36 -9 -65 -25z m-499 -251 c43 -12
112 -54 119 -72 3 -9 -15 -11 -64 -9 -84 4 -184 -26 -234 -70 -40 -35 -68
-110 -63 -171 2 -24 -1 -42 -7 -42 -21 1 -201 16 -220 19 -11 1 -22 13 -25 27
-7 29 -15 16 -19 -31 -4 -52 -11 -50 -11 3 0 25 4 48 9 51 5 3 61 9 125 12 64
4 120 12 125 18 4 6 11 51 14 101 7 100 21 129 78 157 39 20 115 23 173 7z
m33 -204 c-1 -30 -5 -55 -9 -55 -4 0 -8 5 -8 11 0 5 -4 7 -10 4 -12 -7 -14
-36 -2 -34 22 4 42 -2 37 -11 -23 -37 -171 -74 -226 -56 -29 10 -34 16 -37 48
-2 21 2 41 10 48 7 7 65 32 128 55 63 24 116 43 117 44 1 0 1 -24 0 -54z
m-703 -330 c7 -28 21 -33 30 -10 3 8 16 14 28 13 19 -2 23 -8 23 -39 1 -27 -4
-38 -20 -45 -11 -6 -19 -15 -17 -22 1 -7 -3 -12 -9 -12 -5 0 -7 -5 -3 -11 4
-8 9 -7 14 2 6 9 12 9 25 -4 17 -17 13 -21 -17 -18 -10 1 -18 -4 -18 -13 0 -8
-5 -18 -11 -22 -9 -5 -10 1 -5 20 6 25 5 26 -41 26 -54 0 -61 4 -86 42 -22 36
-22 45 7 82 17 23 33 32 59 33 30 2 36 -1 41 -22z m501 -75 c48 0 95 -21 143
-64 52 -48 82 -120 89 -215 3 -42 11 -79 17 -83 6 -4 25 -8 43 -8 70 0 113
-48 113 -124 l0 -36 51 0 c27 0 48 -4 45 -8 -3 -5 -77 -7 -165 -4 -113 3 -165
1 -175 -7 -7 -6 -16 -39 -20 -74 -4 -34 -12 -78 -18 -97 -25 -82 -97 -135
-193 -143 -45 -3 -50 -6 -53 -30 -6 -48 -44 -67 -136 -67 -57 0 -88 -5 -102
-15 -11 -8 -14 -15 -6 -15 6 0 12 -11 12 -25 0 -16 6 -25 16 -25 8 0 12 -4 9
-10 -3 -5 -1 -10 4 -10 6 0 11 5 11 10 0 6 5 10 10 10 6 0 10 -7 10 -15 0 -9
9 -15 23 -15 15 0 7 -7 -28 -24 -27 -12 -56 -30 -64 -39 -7 -9 -17 -14 -22
-11 -5 3 -12 -1 -15 -9 -2 -7 -10 -14 -17 -14 -7 0 -21 -4 -31 -9 -14 -5 -17
-4 -12 4 5 8 0 12 -13 12 -25 0 -25 -5 -6 79 27 116 91 156 230 145 72 -6 109
9 113 48 3 22 -1 26 -31 32 -18 3 -55 20 -81 36 -37 24 -53 43 -74 88 -24 52
-26 70 -29 207 -2 98 0 143 6 130 5 -11 10 -61 10 -112 1 -119 15 -182 54
-240 43 -64 101 -92 187 -92 142 -1 219 81 220 235 0 69 9 73 147 76 l123 3 0
28 c0 42 -27 92 -56 106 -14 6 -42 11 -63 11 -21 0 -43 6 -48 13 -6 6 -13 48
-16 93 -6 92 -28 147 -78 188 -45 38 -82 55 -134 63 -50 6 -60 15 -70 58 l-7
30 21 -32 c17 -27 27 -33 56 -33z m-190 -148 c7 -19 13 -16 -70 -32 -38 -7
-83 -19 -98 -27 -48 -24 -70 -14 -74 35 l-4 43 120 -2 c96 -2 121 -5 126 -17z
m615 -477 c55 -29 57 -41 61 -400 3 -181 2 -382 -1 -445 l-6 -115 -2 93 c-2
88 -3 92 -21 82 -11 -5 -51 -10 -90 -10 -66 0 -71 -2 -85 -27 -9 -17 -15 -22
-16 -12 0 8 6 24 14 35 12 15 30 20 98 24 l83 5 5 105 c3 58 4 110 2 117 -5
17 -58 33 -107 33 -74 0 -73 -3 -77 246 -3 210 -2 223 17 244 37 41 78 49 125
25z m-51 -1380 c-3 -2 -56 -6 -117 -7 -62 -1 -112 -5 -112 -8 0 -3 -10 -6 -21
-7 -12 -1 -24 -5 -27 -8 -15 -14 28 -24 107 -23 112 0 111 0 109 -14 -2 -7 9
-14 24 -16 20 -2 25 -7 21 -19 -5 -12 -1 -14 15 -8 13 4 23 2 23 -4 3 -21 4
-26 12 -38 5 -7 4 -13 -2 -13 -5 0 -13 5 -17 11 -4 8 -9 8 -17 0 -6 -6 -20
-12 -31 -12 -14 -1 -11 -4 9 -8 l30 -7 -29 -6 c-22 -4 -35 1 -61 23 -31 27
-38 29 -119 29 -61 0 -87 4 -88 13 -1 6 -2 38 -2 69 l-1 58 149 0 c82 0 147
-2 145 -5z"/>
<path d="M2481 4300 c-29 -24 -97 -27 -129 -4 l-22 15 0 -159 c0 -187 2 -192
89 -192 29 0 61 -5 72 -10 18 -10 19 -5 19 180 0 104 -1 190 -2 190 -2 -1 -14
-10 -27 -20z"/>
<path d="M6801 4846 c-7 -8 -26 -18 -42 -21 l-29 -7 0 -108 c0 -118 1 -120 61
-120 16 0 46 -7 66 -15 20 -8 39 -13 42 -9 7 6 7 122 1 169 -4 30 -64 125 -80
125 -4 0 -13 -6 -19 -14z"/>
<path d="M7416 4368 c-9 -12 -16 -33 -16 -45 0 -21 -4 -22 -92 -25 -64 -2 -92
-7 -94 -16 -1 -7 0 -8 3 -2 8 16 186 13 209 -5 29 -22 60 -18 84 12 36 46 8
103 -51 103 -17 0 -34 -8 -43 -22z"/>
<path d="M6818 4140 c-4 -14 -8 -55 -8 -91 l0 -67 -47 -38 c-81 -66 -118 -113
-76 -97 12 5 15 2 10 -10 -4 -10 -2 -17 5 -17 7 0 7 -4 -1 -13 -12 -16 -5 -28
12 -21 20 7 37 -46 37 -113 l0 -62 33 7 c17 4 55 7 84 7 67 0 115 -37 149
-115 37 -87 28 -169 -24 -232 l-27 -33 30 22 c17 12 37 33 45 47 15 29 56 44
72 28 6 -6 11 -25 11 -42 0 -16 3 -28 5 -25 3 3 11 -3 18 -13 12 -15 13 -11
14 28 0 25 3 62 6 82 6 31 9 35 20 23 10 -9 14 -38 14 -90 0 -50 4 -74 10 -70
6 4 10 12 9 18 -6 46 3 87 24 108 50 51 67 152 42 252 l-17 66 -30 -15 c-41
-21 -45 -12 -9 24 28 27 30 33 20 61 -17 48 -85 118 -132 136 -41 16 -54 32
-72 93 -14 49 -23 16 -24 -95 -2 -112 -8 -183 -17 -192 -4 -4 -8 142 -8 262
l0 49 -80 -4 -81 -3 -5 85 c-3 59 -7 77 -12 60z"/>
<path d="M6593 4045 c-12 -9 -25 -31 -29 -50 -3 -19 -10 -35 -14 -35 -5 0 -22
-12 -39 -26 -27 -23 -41 -26 -141 -31 -60 -3 -110 -10 -110 -15 0 -4 53 -5
118 -2 l117 7 -18 -21 c-16 -17 -31 -20 -100 -21 -118 0 -117 0 -117 -12 0 -7
31 -10 95 -7 52 1 95 1 95 -2 0 -21 -32 -30 -107 -30 -67 0 -83 -3 -83 -15 0
-12 17 -15 88 -15 80 -1 85 -2 67 -16 -14 -11 -39 -14 -85 -13 l-65 3 -3 -107
c-2 -91 0 -107 13 -107 8 0 15 -4 15 -10 0 -5 -7 -10 -16 -10 -21 0 -15 -39 9
-54 18 -11 54 3 50 21 -1 5 6 19 16 32 17 22 19 23 43 7 l25 -16 16 104 c18
113 47 208 73 237 9 10 13 22 10 27 -3 6 6 17 19 26 14 9 23 21 20 26 -3 4 -1
10 5 12 8 2 63 128 56 128 -1 0 -11 -7 -23 -15z"/>
<path d="M3705 3556 c-21 -21 -25 -33 -20 -54 18 -74 125 -63 125 13 l0 25
105 0 c59 0 105 4 105 9 0 6 -55 12 -122 14 -68 2 -133 7 -145 11 -17 6 -28 2
-48 -18z"/>
<path d="M5597 3433 c-4 -3 -7 -17 -7 -30 l0 -24 148 6 c153 7 368 -7 404 -26
13 -7 23 -8 30 -1 7 7 20 -1 39 -21 22 -25 28 -28 29 -14 0 9 -6 17 -12 17 -9
0 -9 3 -3 8 6 4 12 25 14 46 l3 39 -51 -6 c-28 -3 -53 -2 -56 4 -7 10 -528 13
-538 2z"/>
<path d="M5562 3325 l-12 -25 203 -1 c111 0 229 -5 262 -10 105 -15 126 -15
121 -2 -3 7 -2 12 2 12 21 -4 24 3 6 15 -37 26 -136 36 -354 36 l-217 0 -11
-25z"/>
</g>
</svg>
